# xmcd CD database file
#
# Track frame offsets:
#	150
#	56949
#	112609
#	167495
#	222624
#
# Disc length: 3735 seconds
#
# Revision: 0
# Processed by: cddbd v1.5.2PL0 Copyright (c) Steve Scherf et al.
# Submitted via: CDex 1.51
#
DISCID=410e9505
DTITLE=漫遊SPA音樂紀行 - 律動 Dance in the forest - 叢林之舞
DYEAR=1900
DGENRE=New Age
TTITLE0=Le petit d'homme
TTITLE1=La grande foret
TTITLE2=La Parade
TTITLE3=Lappel
TTITLE4=Melodie doree
EXTD=
EXTT0=
EXTT1=
EXTT2=
EXTT3=
EXTT4=
PLAYORDER=
